<svg xmlns="http://www.w3.org/2000/svg" xmlns:svg="http://www.w3.org/2000/svg" id="svg12" width="16" height="16" version="1.1" viewBox="0 0 16 16"><g id="g10" fill="#2e3436" stroke-width="207.866" style="fill:#000"><path id="path4" d="m 3 0 c -1.6601483 0 -3.00035 1.3398417 -3 3 v 2 c 0.00035 1.6601583 1.3398517 3 3 3 h 10 c 1.660158 0 3.00035 -1.3398417 3 -3 v -2 c -0.00035 -1.6601583 -1.339842 -3 -3 -3 z m 0 2 h 10 c 0.554689 0 0.99988 0.4453106 1 1 v 2 c 0.00012 0.5546894 -0.445311 1 -1 1 h -10 c -0.5546894 0 -0.99988 -0.4453106 -1 -1 v -2 c -0.00012 -0.5546894 0.4453106 -1 1 -1 z" paint-order="markers stroke fill" style="fill:#000"/><path id="path6" d="m 9.0002101 10.00016 v 5 c 0 0.554 -0.446 1 -1 1 s -1 -0.446 -1 -1 v -5 c 0 -0.554 0.446 -1 1 -1 s 1 0.446 1 1 z" paint-order="markers stroke fill" style="fill:#000"/><path id="path8" d="m 8.0002101 9.00016 h 6.9999899 c 0.554 0 1 0.446 1 1 s -0.446 1 -1 1 h -6.9999899 c -0.554 0 -1 -0.446 -1 -1 s 0.446 -1 1 -1 z" paint-order="markers stroke fill" style="fill:#000"/></g></svg>